{"title":"Witch Hunter Robin","uid":9408833,"size":1287500828,"categoryP":"video","categoryS":"tv_shows","magnet":"?xt=urn:btih:a625756b74f48aea499e0e37c26e2b7cb24ca4d3&amp;dn=Witch+Hunter+Robin&amp;tr=udp%3A%2F%2Ftracker.openbittorrent.com%3A80&amp;tr=udp%3A%2F%2Fopen.demonii.com%3A1337&amp;tr=udp%3A%2F%2Ftracker.coppersurfer.tk%3A6969&amp;tr=udp%3A%2F%2Fexodus.desync.com%3A6969","seeders":2,"leechers":1,"uploader":"p7trick","files":-1,"time":1388230739,"description":"downloaded from watchcartoononline\n\nWitch Hunter Robin  ENGLISH DUBBED eps 1-26\n480p\n.flv\n\n_________________________________________________________\n\nFormat                                   : Flash Video\nFile size                                : 41.8 MiB\nDuration                                 : 24mn 22s\nOverall bit rate                         : 240 Kbps\n\nVideo\nFormat                                   : AVC\nFormat/Info                              : Advanced Video Codec\nFormat profile                           : &lt;a class=&quot;__cf_email__&quot; href=&quot;/cdn-cgi/l/email-protection&quot; data-cfemail=&quot;672f0e000f272b544957&quot;&gt;[email&amp;#160;protected]&lt;/a&gt;&lt;script cf-hash='f9e31' type=&quot;text/javascript&quot;&gt;\n/* &lt;![CDATA[ */!function(){try{var t=&quot;currentScript&quot;in document?document.currentScript:function(){for(var t=document.getElementsByTagName(&quot;script&quot;),e=t.length;e--;)if(t[e].getAttribute(&quot;cf-hash&quot;))return t[e]}();if(t&amp;&amp;t.previousSibling){var e,r,n,i,c=t.previousSibling,a=c.getAttribute(&quot;data-cfemail&quot;);if(a){for(e=&quot;&quot;,r=parseInt(a.substr(0,2),16),n=2;a.length-n;n+=2)i=parseInt(a.substr(n,2),16)^r,e+=String.fromCharCode(i);e=document.createTextNode(e),c.parentNode.replaceChild(e,c)}}}catch(u){}}();/* ]]&gt; */&lt;/script&gt;\nFormat settings, CABAC                   : Yes\nFormat settings, ReFrames                : 5 frames\nCodec ID                                 : 7\nDuration                                 : 24mn 22s\nBit rate                                 : 131 Kbps\nWidth                                    : 640 pixels\nHeight                                   : 480 pixels\nDisplay aspect ratio                     : 4:3\nFrame rate mode                          : Constant\nFrame rate                               : 23.976 fps\nColor space                              : YUV\nChroma subsampling                       : 4:2:0\nBit depth                                : 8 bits\nScan type                                : Progressive\nBits/(Pixel*Frame)                       : 0.018\nStream size                              : 23.8 MiB (57%)\n\nAudio\nFormat                                   : AAC\nFormat/Info                              : Advanced Audio Codec\nFormat profile                           : LC\nCodec ID                                 : 10\nDuration                                 : 24mn 22s\nBit rate                                 : 95.5 Kbps\nChannel count                            : 2 channels\nChannel positions                        : Front: L R\nSampling rate                            : 44.1 KHz\nCompression mode                         : Lossy\nStream size                              : 17.7 MiB (42%)\n\n_________________________________________________________\n\nSummary:\nA couple of hundred years have passed and people hardly hear about witches nowadays. However, a leading secret organization in witch management still exists. Salomon's witch management organization, STN, is assigned the task of capturing the remaining witches. As a leading secret organization in witch management, STN's influence has reached the government and police organizations across the world.\n\nAs the recent change in Japanese society has led into an increase of witch activities, STN-J assembled a group of hunters to draw a desperate last-minute fight against witches. However, the mysterious death of one member of the group has led to a decrease in morale in STN-J.\n\nFor updates/requests:\nTwitter - @p7tricktorrent\nFacebook - /p7tricktorrent\n_________________________________________________________\n\nSEED!\n\nshare ratio:\n&quot;Scumbag = 0.1:1\nLeecher = 0.999:1\nMinimum = 1:1\nGood = 3:1\nGreat = 5:1\nAwesome = 10:1\n1337 = 100:1&quot;","torrent":{"xt":"urn:btih:a625756b74f48aea499e0e37c26e2b7cb24ca4d3","amp;dn":"Witch+Hunter+Robin","amp;tr":["udp%3A%2F%2Ftracker.openbittorrent.com%3A80","udp%3A%2F%2Fopen.demonii.com%3A1337","udp%3A%2F%2Ftracker.coppersurfer.tk%3A6969","udp%3A%2F%2Fexodus.desync.com%3A6969"],"infoHash":"a625756b74f48aea499e0e37c26e2b7cb24ca4d3","infoHashBuffer":{"type":"Buffer","data":[166,37,117,107,116,244,138,234,73,158,14,55,194,110,43,124,178,76,164,211]},"announce":[],"urlList":[]}}